<svg width="14" height="13" viewBox="0 0 14 13" fill="none" xmlns="http://www.w3.org/2000/svg">
<path d="M13.6962 5.89138C13.9717 5.63109 14.069 5.24907 13.9502 4.89395C13.831 4.53883 13.5207 4.28533 13.1394 4.23153L9.74965 3.75415C9.60528 3.73377 9.48053 3.64601 9.41605 3.51912L7.90057 0.542323C7.73041 0.207854 7.38504 0 7.00014 0C6.61552 0 6.27015 0.207854 6.09999 0.542323L4.58423 3.5194C4.51975 3.64628 4.39472 3.73404 4.25035 3.75442L0.860564 4.23181C0.479592 4.28533 0.168983 4.5391 0.0498411 4.89422C-0.0690201 5.24934 0.0282555 5.63136 0.303823 5.89165L2.75646 8.20875C2.86102 8.30765 2.90896 8.45003 2.88429 8.58914L2.30568 11.861C2.25438 12.149 2.33231 12.4291 2.52462 12.65C2.82346 12.9943 3.34516 13.0992 3.76229 12.8867L6.79381 11.3418C6.92052 11.2774 7.08003 11.2779 7.20646 11.3418L10.2383 12.8867C10.3857 12.962 10.543 13 10.7053 13C11.0016 13 11.2825 12.8723 11.4757 12.65C11.6682 12.4291 11.7459 12.1485 11.6946 11.861L11.1157 8.58914C11.091 8.44976 11.139 8.30765 11.2435 8.20875L13.6962 5.89138Z" fill="#F0BF5F"/>
</svg>
